HIERARCHY
ROOT Hips
{
	OFFSET 0.000000 0.000000 0.000000
	CHANNELS 6 Xposition Yposition Zposition Zrotation Yrotation Xrotation 
	JOINT LHipJoint
	{
		OFFSET 0.000000 0.000000 0.000000
		CHANNELS 3 Zrotation Yrotation Xrotation
		JOINT LeftUpLeg
		{
			OFFSET 1.363060 -1.794630 0.839290
			CHANNELS 3 Zrotation Yrotation Xrotation
			JOINT LeftLeg
			{
				OFFSET 2.448110 -6.726130 0.000000
				CHANNELS 3 Zrotation Yrotation Xrotation
				JOINT LeftFoot
				{
					OFFSET 2.562200 -7.039590 0.000000
					CHANNELS 3 Zrotation Yrotation Xrotation
					JOINT LeftToeBase
					{
						OFFSET 0.157640 -0.433110 2.322550
						CHANNELS 3 Zrotation Yrotation Xrotation
						End Site
						{
							OFFSET 0.000000 0.000000 0.000000
						}
					}
				}
			}
		}
	}
	JOINT RHipJoint
	{
		OFFSET 0.000000 0.000000 0.000000
		CHANNELS 3 Zrotation Yrotation Xrotation
		JOINT RightUpLeg
		{
			OFFSET -1.305520 -1.794630 0.839290
			CHANNELS 3 Zrotation Yrotation Xrotation
			JOINT RightLeg
			{
				OFFSET -2.542530 -6.985550 0.000000
				CHANNELS 3 Zrotation Yrotation Xrotation
				JOINT RightFoot
				{
					OFFSET -2.568260 -7.056230 0.000000
					CHANNELS 3 Zrotation Yrotation Xrotation
					JOINT RightToeBase
					{
						OFFSET -0.164730 -0.452590 2.363150
						CHANNELS 3 Zrotation Yrotation Xrotation
						End Site
						{
							OFFSET 0.000000 0.000000 0.000000
						}
					}
				}
			}
		}
	}
	JOINT LowerBack
	{
		OFFSET 0.000000 0.000000 0.000000
		CHANNELS 3 Zrotation Yrotation Xrotation
		JOINT Spine
		{
			OFFSET 0.028270 2.035590 -0.193380
			CHANNELS 3 Zrotation Yrotation Xrotation
			JOINT Spine1
			{
				OFFSET 0.056720 2.048850 -0.042750
				CHANNELS 3 Zrotation Yrotation Xrotation
				JOINT Neck
				{
					OFFSET 0.000000 0.000000 0.000000
					CHANNELS 3 Zrotation Yrotation Xrotation
					JOINT Neck1
					{
						OFFSET -0.054170 1.746240 0.172020
						CHANNELS 3 Zrotation Yrotation Xrotation
						JOINT Head
						{
							OFFSET 0.104070 1.761360 -0.123970
							CHANNELS 3 Zrotation Yrotation Xrotation
							End Site
							{
								OFFSET 0.000000 0.000000 0.000000
							}
						}
					}
				}
				JOINT LeftShoulder
				{
					OFFSET 0.000000 0.000000 0.000000
					CHANNELS 3 Zrotation Yrotation Xrotation
					JOINT LeftArm
					{
						OFFSET 3.362410 1.200890 -0.311210
						CHANNELS 3 Zrotation Yrotation Xrotation
						JOINT LeftForeArm
						{
							OFFSET 4.983000 -0.000000 -0.000000
							CHANNELS 3 Zrotation Yrotation Xrotation
							JOINT LeftHand
							{
								OFFSET 3.483560 -0.000000 -0.000000
								CHANNELS 3 Zrotation Yrotation Xrotation
								JOINT LeftFingerBase
								{
									OFFSET 0.000000 0.000000 0.000000
									CHANNELS 3 Zrotation Yrotation Xrotation
									JOINT LeftHandIndex1
									{
										OFFSET 0.715260 -0.000000 -0.000000
										CHANNELS 3 Zrotation Yrotation Xrotation
										End Site
										{
											OFFSET 0.000000 0.000000 0.000000
										}
									}
								}
								JOINT LThumb
								{
									OFFSET 0.000000 0.000000 0.000000
									CHANNELS 3 Zrotation Yrotation Xrotation
									End Site
									{
										OFFSET 0.000000 0.000000 0.000000
									}
								}
							}
						}
					}
				}
				JOINT RightShoulder
				{
					OFFSET 0.000000 0.000000 0.000000
					CHANNELS 3 Zrotation Yrotation Xrotation
					JOINT RightArm
					{
						OFFSET -3.136600 1.374050 -0.404650
						CHANNELS 3 Zrotation Yrotation Xrotation
						JOINT RightForeArm
						{
							OFFSET -5.241900 -0.000000 -0.000000
							CHANNELS 3 Zrotation Yrotation Xrotation
							JOINT RightHand
							{
								OFFSET -3.444170 -0.000000 -0.000000
								CHANNELS 3 Zrotation Yrotation Xrotation
								JOINT RightFingerBase
								{
									OFFSET 0.000000 0.000000 0.000000
									CHANNELS 3 Zrotation Yrotation Xrotation
									JOINT RightHandIndex1
									{
										OFFSET -0.622530 -0.000000 -0.000000
										CHANNELS 3 Zrotation Yrotation Xrotation
										End Site
										{
											OFFSET 0.000000 0.000000 0.000000
										}
									}
								}
								JOINT RThumb
								{
									OFFSET 0.000000 0.000000 0.000000
									CHANNELS 3 Zrotation Yrotation Xrotation
									End Site
									{
										OFFSET 0.000000 0.000000 0.000000
									}
								}
							}
						}
					}
				}
			}
		}
	}
}
MOTION
Frames: 5
Frame Time: 0.008333
8.249563 17.395157 -44.061323 -2.209611 -2.696126 7.721914 1.062058 -1.207694 -1.904694 -13.897682 3.823756 -34.596458 8.875589 19.095163 58.234423 -4.264085 14.159892 3.516752 3.755900 11.828300 35.127100 0.900141 -0.213533 0.597860 22.958262 7.888111 -13.351010 1.686487 -8.121125 23.352325 -2.231761 4.992175 3.722343 -0.027900 1.077700 -2.962600 1.409880 1.004638 -0.583661 0.999818 1.018136 -5.164891 3.384427 0.823562 4.589875 -8.850697 -3.906513 -14.422602 5.251382 -3.485165 6.940878 5.263100 -1.916700 9.274500 -0.798807 -6.624021 -0.690629 -82.470132 12.323010 46.380387 13.661014 -23.681303 -3.853367 -0.182929 0.671312 -7.372532 12.228052 -18.276653 -4.063700 -7.125000 0.000000 0.000000 -10.312400 10.832600 8.330100 -0.226472 8.082267 0.903941 74.696056 -3.220745 44.178848 -21.542266 28.409024 -7.606142 2.579813 2.227508 -20.768774 -29.314494 -19.945979 12.643900 7.125000 0.000000 0.000000 -4.215500 -53.969500 0.930700 
8.239840 17.396359 -43.922800 -2.861214 -2.836478 7.835796 1.164595 -1.318311 -2.118843 -13.239189 3.835511 -35.793778 8.368891 18.945783 56.586208 -4.209011 14.004624 4.278695 1.238500 7.056800 19.883800 0.876324 -0.261669 0.692359 23.827920 8.401026 -12.568630 1.742874 -7.966687 22.985525 -2.131761 4.706844 2.933959 -0.114400 2.180200 -6.004000 1.984092 1.207695 -0.070282 1.016031 1.267513 -5.212072 3.268723 0.984217 4.189611 -8.688256 -3.960723 -14.504481 5.187387 -3.577199 6.823280 5.155800 -1.950800 9.333800 -0.707677 -6.669575 -0.743837 -82.504337 13.455042 45.650266 13.822943 -24.001488 -4.009417 -0.015769 0.769316 -6.863465 10.540700 -20.363224 -3.813300 -7.125000 0.000000 0.000000 -11.529900 8.853400 9.824400 -0.242744 8.184934 0.894962 74.400803 -2.743902 44.520205 -22.308688 29.029578 -7.975084 2.539143 2.179378 -21.065760 -29.079613 -19.516811 12.254900 7.125000 0.000000 0.000000 -3.973400 -53.396300 0.821500 
8.228042 17.381611 -43.779907 -3.514189 -2.913106 8.052272 1.244714 -1.448551 -2.329941 -12.483111 3.495257 -36.761404 7.648267 18.661343 54.334245 -4.057728 13.634852 5.421245 -0.000000 0.032500 0.089200 0.846972 -0.277222 0.751142 24.723754 8.970548 -12.038757 1.712253 -7.989378 23.078146 -2.052605 4.450709 1.714934 -0.175600 2.699100 -7.442000 2.601126 1.429752 0.325703 1.001923 1.547472 -5.269628 2.952590 1.167635 3.759779 -8.396172 -4.095402 -14.452953 5.159266 -3.834670 6.759066 5.045400 -2.055400 9.401500 -0.677481 -6.730914 -0.780318 -82.245058 14.293481 45.472240 13.842117 -23.981606 -3.992580 -0.091515 0.725070 -7.057447 11.364400 -19.496003 -3.979200 -7.125000 0.000000 0.000000 -10.945100 9.663600 9.125100 -0.275211 8.297559 0.877065 74.395985 -2.193956 44.589230 -22.842956 29.463683 -8.285035 2.543192 2.233715 -21.268785 -29.255866 -20.152630 12.716200 7.125000 0.000000 0.000000 -4.100100 -54.173000 0.925600 
8.230117 17.355064 -43.611778 -3.737461 -3.117999 8.227689 1.185220 -1.565028 -2.478717 -12.138223 2.974703 -37.116310 6.781502 18.250809 51.790124 -4.135401 13.848089 5.615620 0.376300 -3.939800 -10.907300 0.868415 -0.290678 0.832962 25.007227 9.035868 -11.552491 1.724003 -7.915745 22.944151 -2.047786 4.433973 1.296235 -0.160700 2.583200 -7.120400 2.705343 1.606130 0.337518 1.000584 1.759051 -5.286089 3.149409 1.281301 3.804931 -8.967792 -4.147550 -14.853425 5.608359 -3.713064 7.084907 5.547600 -2.016500 9.866400 -0.731389 -6.679841 -0.848954 -82.253810 14.905177 45.570011 13.676046 -23.785977 -3.892550 -0.202203 0.708853 -7.295267 12.534239 -18.901446 -4.312700 -7.125000 0.000000 0.000000 -10.115800 10.136200 8.311700 -0.338449 8.360173 0.868527 73.914599 -1.520635 44.846246 -23.247894 29.800530 -8.543860 2.559851 2.313828 -21.538844 -29.660768 -20.816731 13.323900 7.125000 0.000000 0.000000 -4.497100 -55.045400 1.111000 
8.243882 17.352879 -43.411531 -3.448784 -3.534171 8.298549 0.949969 -1.673530 -2.585493 -12.384469 2.978051 -37.021495 5.697918 17.627889 48.780789 -4.068009 13.640613 5.552458 0.462300 -4.361200 -12.095100 0.876528 -0.324090 0.889424 24.644209 8.748407 -10.947212 1.720349 -7.843742 22.865740 -2.162869 4.799854 1.264272 -0.112400 2.161300 -5.951500 1.889097 1.700807 -0.348198 1.128180 1.812988 -5.151241 4.501437 1.262089 4.687911 -9.537712 -4.158120 -14.839202 5.412813 -3.582981 6.881289 5.406100 -1.981500 9.442100 -0.643584 -6.517859 -0.805741 -83.470316 14.774718 44.638706 12.892006 -23.163886 -3.631318 -0.033998 0.752305 -6.783974 9.884298 -19.890694 -3.498400 -7.125000 0.000000 0.000000 -11.927100 9.399100 10.045200 -0.088500 8.191370 1.029147 72.142477 -0.461510 45.711026 -23.668609 30.107668 -8.773207 2.555422 2.344231 -22.023758 -30.211778 -20.394220 13.363000 7.125000 0.000000 0.000000 -5.182700 -54.698500 1.237200 
